<?xml version="1.0" encoding="UTF-8" standalone="no"?>
<!-- Generator: Adobe Illustrator 18.1.1, SVG Export Plug-In . SVG Version: 6.00 Build 0)  -->

<svg
   xmlns:dc="http://purl.org/dc/elements/1.1/"
   xmlns:cc="http://creativecommons.org/ns#"
   xmlns:rdf="http://www.w3.org/1999/02/22-rdf-syntax-ns#"
   xmlns:svg="http://www.w3.org/2000/svg"
   xmlns="http://www.w3.org/2000/svg"
   xmlns:sodipodi="http://sodipodi.sourceforge.net/DTD/sodipodi-0.dtd"
   xmlns:inkscape="http://www.inkscape.org/namespaces/inkscape"
   version="1.1"
   id="Layer_1"
   x="0px"
   y="0px"
   viewBox="-205 297 145.8 147.89999"
   enable-background="new -205 297 200 200"
   xml:space="preserve"
   inkscape:version="0.91 r13725"
   sodipodi:docname="logo-1.svg"
   inkscape:export-filename="D:\Learning\HTML\portfolio_2\img\logoshel.png"
   inkscape:export-xdpi="90"
   inkscape:export-ydpi="90"
   width="145.8"
   height="147.89999"><metadata
     id="metadata3351"><rdf:RDF><cc:Work
         rdf:about=""><dc:format>image/svg+xml</dc:format><dc:type
           rdf:resource="http://purl.org/dc/dcmitype/StillImage" /><dc:title></dc:title></cc:Work></rdf:RDF></metadata><defs
     id="defs3349" /><sodipodi:namedview
     pagecolor="#ffffff"
     bordercolor="#666666"
     borderopacity="1"
     objecttolerance="10"
     gridtolerance="10"
     guidetolerance="10"
     inkscape:pageopacity="0"
     inkscape:pageshadow="2"
     inkscape:window-width="1680"
     inkscape:window-height="987"
     id="namedview3347"
     showgrid="false"
     fit-margin-top="0"
     fit-margin-left="0"
     fit-margin-right="0"
     fit-margin-bottom="0"
     inkscape:zoom="1.4460334"
     inkscape:cx="77.588102"
     inkscape:cy="61.329075"
     inkscape:window-x="-8"
     inkscape:window-y="-8"
     inkscape:window-maximized="1"
     inkscape:current-layer="Layer_1" /><g
     id="g3337"
     transform="matrix(2.613142,0,0,2.613142,143.42089,-670.94006)"><g
       id="g3339"><path
         d="m -31.2,472 c -48.5,0 -97.2,0 -145.8,0 0,-49.3 0,-98.5 0,-147.9 48.5,0 97.1,0 145.8,0 0,49.2 0,98.6 0,147.9 z m -87.4,-62.3 c -1.5,1.7 -2.7,3 -4,4.3 -16.6,16.6 -33.3,33.2 -49.8,49.9 -1.2,1.2 -1.5,3.3 -2.2,4.9 1.6,-0.7 3.6,-0.9 4.8,-2 10.1,-9.9 20.2,-19.8 30,-30.1 3,-3.1 4.8,-3 8.3,-0.6 14.6,10.2 30.4,11.6 46.3,3.6 15.9,-8 24.1,-21.6 24.8,-39.4 0.3,-6.4 -0.7,-12.7 -4.9,-18.1 -0.6,2.1 -0.4,4 0.1,5.8 8.1,29.6 -15.9,57.2 -46.2,53 -8,-1.1 -15.3,-4.1 -21.5,-10.2 1.2,-1.4 2.1,-2.6 3.1,-3.6 9.1,-9.3 18.2,-18.5 27.4,-27.7 6.6,-6.6 5.1,-6.3 11.7,0.1 2.4,2.3 4.7,4.8 7.1,7 0.8,0.8 2,1.1 3,1.6 0.4,-0.4 0.7,-0.7 1.1,-1.1 -0.8,-1.2 -1.5,-2.6 -2.6,-3.6 -2.8,-2.9 -5.4,-5.9 -8.5,-8.5 -3.5,-2.9 -3.1,-4.9 0,-7.9 18.3,-18 36.5,-36.1 54.6,-54.3 1.1,-1.1 1.3,-3.2 1.9,-4.8 -1.5,0.7 -3.4,1 -4.5,2 -11.1,10.9 -22.1,21.8 -32.9,32.8 -2.6,2.7 -4.4,2.8 -7.5,0.5 -9.9,-7.4 -21.2,-10.1 -33.5,-8.3 -26.4,3.8 -44.1,31.6 -36.3,57 0.5,1.5 1.5,2.8 2.3,4.1 0.5,-0.2 1,-0.4 1.5,-0.6 -0.3,-1.7 -0.5,-3.3 -0.9,-5 -3.4,-14.4 -0.7,-27.5 9,-38.8 13.6,-15.9 39.2,-18.7 55.8,-6.3 2,1.5 4.6,2.9 1.6,5.8 -11.1,10.8 -22,21.8 -33.2,32.5 -3,2.9 -9.1,2 -12.2,-1.4 -2.9,-3.2 -2.7,-6 1.1,-10 3.6,-3.7 7.3,-7.3 10.9,-11 1,-1.1 1.6,-2.6 2.3,-3.9 -0.6,-0.5 -1.1,-1 -1.7,-1.4 -3.6,3.5 -7.1,7 -10.7,10.6 -11.2,11.2 -10.4,15.8 4.4,23.1 z"
         id="path3341"
         inkscape:connector-curvature="0"
         style="fill:none" /><path
         d="m -118.6,409.7 c -14.8,-7.2 -15.5,-11.8 -4.3,-23.1 3.5,-3.5 7.1,-7 10.7,-10.6 0.6,0.5 1.1,1 1.7,1.4 -0.8,1.3 -1.3,2.9 -2.3,3.9 -3.5,3.8 -7.3,7.3 -10.9,11 -3.8,4 -4,6.8 -1.1,10 3.1,3.4 9.2,4.3 12.2,1.4 11.2,-10.7 22.1,-21.7 33.2,-32.5 3,-2.9 0.4,-4.3 -1.6,-5.8 -16.5,-12.5 -42.1,-9.6 -55.8,6.3 -9.7,11.3 -12.4,24.4 -9,38.8 0.4,1.6 0.6,3.3 0.9,5 -0.5,0.2 -1,0.4 -1.5,0.6 -0.8,-1.4 -1.9,-2.7 -2.3,-4.1 -7.9,-25.5 9.9,-53.2 36.3,-57 12.3,-1.8 23.6,0.9 33.5,8.3 3.1,2.3 4.8,2.2 7.5,-0.5 10.8,-11.1 21.8,-22 32.9,-32.8 1.1,-1.1 3,-1.4 4.5,-2 -0.6,1.6 -0.7,3.7 -1.9,4.8 -18.1,18.1 -36.3,36.2 -54.6,54.2 -3.1,3 -3.5,5.1 0,7.9 3.1,2.5 5.8,5.6 8.5,8.5 1,1.1 1.7,2.4 2.6,3.6 -0.4,0.4 -0.7,0.7 -1.1,1.1 -1,-0.5 -2.2,-0.9 -3,-1.6 -2.4,-2.3 -4.7,-4.7 -7.1,-7 -6.6,-6.5 -5.1,-6.8 -11.7,-0.1 -9.2,9.2 -18.3,18.5 -27.4,27.7 -1,1 -1.9,2.2 -3.1,3.6 6.2,6.1 13.5,9.1 21.5,10.2 30.3,4.2 54.3,-23.4 46.2,-53 -0.5,-1.8 -0.7,-3.7 -0.1,-5.8 4.1,5.4 5.1,11.8 4.9,18.1 -0.7,17.8 -8.9,31.4 -24.8,39.4 -15.9,8 -31.7,6.7 -46.3,-3.6 -3.4,-2.4 -5.3,-2.5 -8.3,0.6 -9.8,10.2 -19.9,20.2 -30,30.1 -1.2,1.1 -3.2,1.4 -4.8,2 0.7,-1.7 1,-3.7 2.2,-4.9 16.5,-16.7 33.2,-33.3 49.8,-49.9 1.1,-1.2 2.3,-2.6 3.9,-4.2 z"
         id="path3343"
         inkscape:connector-curvature="0" /></g></g><path
     enable-background="new    "
     d=""
     id="path3345"
     inkscape:connector-curvature="0"
     style="fill:none" /></svg>