<?xml version="1.0" encoding="UTF-8" standalone="no"?>
<!-- Generator: Adobe Illustrator 16.0.0, SVG Export Plug-In . SVG Version: 6.00 Build 0)  -->

<svg
   xmlns:dc="http://purl.org/dc/elements/1.1/"
   xmlns:cc="http://creativecommons.org/ns#"
   xmlns:rdf="http://www.w3.org/1999/02/22-rdf-syntax-ns#"
   xmlns:svg="http://www.w3.org/2000/svg"
   xmlns="http://www.w3.org/2000/svg"
   xmlns:sodipodi="http://sodipodi.sourceforge.net/DTD/sodipodi-0.dtd"
   xmlns:inkscape="http://www.inkscape.org/namespaces/inkscape"
   version="1.1"
   id="Capa_1"
   x="0px"
   y="0px"
   width="48.956px"
   height="48.955px"
   viewBox="0 0 48.956 48.955"
   style="enable-background:new 0 0 48.956 48.955;"
   xml:space="preserve"
   inkscape:version="0.91 r13725"
   sodipodi:docname="magic-wand-w.svg"><metadata
     id="metadata41"><rdf:RDF><cc:Work
         rdf:about=""><dc:format>image/svg+xml</dc:format><dc:type
           rdf:resource="http://purl.org/dc/dcmitype/StillImage" /><dc:title></dc:title></cc:Work></rdf:RDF></metadata><defs
     id="defs39" /><sodipodi:namedview
     pagecolor="#ffffff"
     bordercolor="#666666"
     borderopacity="1"
     objecttolerance="10"
     gridtolerance="10"
     guidetolerance="10"
     inkscape:pageopacity="0"
     inkscape:pageshadow="2"
     inkscape:window-width="1680"
     inkscape:window-height="987"
     id="namedview37"
     showgrid="false"
     inkscape:zoom="4.8207536"
     inkscape:cx="24.478001"
     inkscape:cy="24.477501"
     inkscape:window-x="-8"
     inkscape:window-y="-8"
     inkscape:window-maximized="1"
     inkscape:current-layer="g3" /><g
     id="g3"><path
       d="M24.698,19.041l4.338,4.336l-1.065,1.066l-4.338-4.336L24.698,19.041z M32.826,14.269c-0.927-0.928-2.427-0.928-3.354,0   l-3.604,3.603l4.338,4.337l3.604-3.604c0.928-0.928,0.928-2.429,0-3.354L32.826,14.269z M0.696,43.043   c-0.928,0.926-0.928,2.43,0,3.354l0.98,0.98c0.927,0.928,2.429,0.928,3.354,0l21.655-21.655l-4.337-4.339L0.696,43.043z    M42.708,13.878l-0.803,2.113l-2.112,0.802l2.112,0.804l0.803,2.112l0.803-2.112l2.112-0.804l-2.112-0.802L42.708,13.878z    M35.958,4.718l-1.455-3.835l-1.453,3.835l-3.836,1.455l3.836,1.455l1.453,3.836l1.455-3.836l3.835-1.455L35.958,4.718z    M46.689,6.856l-0.857-2.267l-0.857,2.267l-2.266,0.857l2.266,0.86l0.857,2.265l0.857-2.265l2.267-0.86L46.689,6.856z"
       id="path5"
       style="fill:#ffffff;fill-opacity:1" /></g><g
     id="g7" /><g
     id="g9" /><g
     id="g11" /><g
     id="g13" /><g
     id="g15" /><g
     id="g17" /><g
     id="g19" /><g
     id="g21" /><g
     id="g23" /><g
     id="g25" /><g
     id="g27" /><g
     id="g29" /><g
     id="g31" /><g
     id="g33" /><g
     id="g35" /></svg>