<svg xmlns="http://www.w3.org/2000/svg" xmlns:xlink="http://www.w3.org/1999/xlink" version="1.1" id="Layer_1" x="0" y="0" viewBox="0 0 612 792" enable-background="new 0 0 612 792" xml:space="preserve">
  <path fill="#FEFEFE" d="M379 329c0 45.8 0 91.5 0.1 137.3 0 3.1-0.7 3.8-3.8 3.8 -45.6-0.1-91.2-0.1-136.8-0.1 -2.2 0-4.4 0.4-3.5-3 0.4-0.3 0.8-0.5 1.3-0.7 1.7-0.4 2.9-1.5 4.1-2.7 9.6-9.9 19.5-19.6 29.3-29.4 4.8-4.8 4.9-4.7 10.4-1 23.8 16 54.4 7.4 65.8-18.6 4.5-10.3 4.6-21 0.7-31.6 2 8.4 2.5 16.8 0.7 25.3 -6.1 28.1-42.6 42-65.8 24.9 -4.5-3.3-4.7-4.9-1-8.7 9.5-9.8 19.4-19.2 28.5-29.4 4.3-4.8 5.6-4.6 10.2-0.2 3.1 3 6 6.3 9.3 9.1 0.1 0.1 0.3 0 0.9 0 -3.3-3.9-6.9-7-10.2-10.5 -3.6-3.8-3.7-5 0.1-8.7 7.5-7.5 15.5-14.7 22.8-22.4 9.7-10.1 19.7-19.8 29.4-29.9 1.6-1.7 3.1-3.6 5.5-4.1C377.7 328.2 378.4 328.5 379 329z"/>
  <path fill="#FEFEFE" d="M235.8 467c-0.3 0-0.5 0-0.8 0 0-46.8 0-93.7-0.1-140.5 0-3 0.6-3.6 3.6-3.6 44.8 0.1 89.7 0.2 134.5-0.1 5.1 0 7.1 1 6 6.1 -0.6 0-1.2 0-1.8 0.1 -2.4-2.9-3.8-0.1-5.1 1.2 -9.6 9.5-19.1 19.1-28.7 28.6 -1.1 1.1-2.2 2.1-3.2 3.2 -2.6 2.8-5.1 3-8.2 0.7 -6.5-4.9-13.9-7.7-22.1-8.6 -23.5-2.6-44.2 14.3-47.6 36.2 -1.2 8-0.7 14.1 2 21 -1.8-7.6-2.4-15.2-0.8-22.9 3.8-19.1 21.1-33.3 40.5-33.7 8.8-0.2 16.8 1.7 24.3 6.2 6.2 3.8 6.6 6.4 1.4 11.5 -9.5 9.6-19 19.1-28.6 28.6 -4.6 4.5-7.8 5-13 2.2 -5.5-2.9-6.7-8-2.7-12.8 2.9-3.5 6.3-6.4 9.4-9.7 1.1-1.2 2.7-2 3.2-4.3 -4.9 4.5-9.4 8.6-13.3 13.4 -4.8 6-3.4 11.2 3.5 14.4 6.2 2.9 6.3 3.4 1.3 8.4 -12.9 12.8-25.7 25.7-38.5 38.5C245.9 456.4 240.6 461.5 235.8 467z"/>
  <path fill="#010101" d="M235.8 467c-0.7-2.7 1.4-3.9 2.8-5.4 16.8-16.8 33.7-33.6 50.5-50.4 1.2-1.2 2.4-2.3 3.7-3.5 -1.4-1.5-3.2-1.4-4.6-1.8 -7.9-2.7-10.2-10.2-4.7-16.4 4.3-4.9 9.1-9.3 13.6-13.9 1-1 1.8-1.9 3.2-0.4 1.2 1.4 0.1 2.1-0.7 2.8 -4.1 4.1-8.3 8.2-12.3 12.4 -4.1 4.2-4.3 6.9-1.1 10.3 3.6 3.7 9.5 4 12.9 0.7 10.7-10.5 21.3-21.1 32-31.5 2.4-2.3 2.7-3.6-0.2-5.7 -13.4-9.6-27.9-11.3-42.7-4.6 -15 6.7-23.1 18.9-24.2 35.4 -0.4 5.5 0.1 10.9 2 16.2 0.4 1.1 1.4 2.5-0.7 3.1 -2 0.6-1.9-1-2.3-2.1 -9.7-25.7 9.2-56.3 36.4-59.2 12.9-1.4 24.3 1.7 34.3 9.6 2.4 1.9 3.3 0.8 4.7-0.7 11.6-11.7 23.3-23.3 35-35 0.9-0.9 1.7-2.4 3.3-1.6 1.8 0.9 1.4 2.3 0.6 3.8 -10.3 10.2-20.6 20.4-30.9 30.6 -8.9 8.8-17.7 17.6-26.7 26.3 -2.4 2.3-2.9 3.7-0.1 6.1 3.9 3.4 7.4 7.2 11 10.9 0.7 0.7 2.1 1.3 0.7 2.7 -1.4 1.5-2.2 0.5-3.2-0.5 -3.7-3.8-7.6-7.5-11.3-11.3 -1.7-1.8-2.7-2.2-4.7-0.2 -10.7 11-21.4 21.9-32.3 32.7 -2.1 2.1-1.6 3.1 0.4 4.5 13.4 9.5 27.9 11.3 42.8 4.6 14.9-6.8 23-18.9 24.1-35.4 0.4-5.7-0.1-11.3-2.2-16.6 -0.9-2.3-0.1-3.3 1.6-4.4 12.7 27.6-5.7 59.9-35.5 63.1 -12.4 1.3-23.4-1.7-33-9.2 -2.6-2.1-3.6-1.3-5.5 0.6 -10.5 10.7-21.2 21.3-31.8 31.8C239.3 466.6 238.3 469 235.8 467z"/>
</svg>
